<svg xmlns="http://www.w3.org/2000/svg" viewBox="0 0 64 64">
  <rect width="64" height="64" rx="12" fill="#0e1218"/>
  <!-- moon glow -->
  <circle cx="48" cy="16" r="6" fill="#f6c544" opacity="0.18"/>
  <!-- crow silhouette in flight -->
  <path d="M10 18 C 16 12, 22 18, 26 14 C 30 18, 36 12, 42 18 C 36 16, 32 20, 26 18 C 20 20, 16 16, 10 18 Z" fill="#0a0a0a" stroke="#f6c544" stroke-width="0.6"/>
  <circle cx="26" cy="15.5" r="0.7" fill="#f6c544"/>
  <!-- waves -->
  <path d="M0 52 Q 10 48 20 52 T 40 52 T 64 52 V 64 H 0 Z" fill="#1a3148"/>
  <path d="M0 56 Q 12 53 24 56 T 48 56 T 64 56 V 64 H 0 Z" fill="#0f2236"/>
  <!-- mast -->
  <rect x="31" y="24" width="2" height="22" fill="#c9a23a"/>
  <!-- main sail -->
  <path d="M33 25 L 33 44 L 47 44 Q 44 34 33 25 Z" fill="#f6c544"/>
  <!-- fore sail -->
  <path d="M31 27 L 31 44 L 20 44 Q 24 35 31 27 Z" fill="#e7a82a"/>
  <!-- hull -->
  <path d="M10 44 L 54 44 L 48 52 Q 32 56 16 52 Z" fill="#3a2818" stroke="#f6c544" stroke-width="0.8"/>
  <!-- hull stripe -->
  <path d="M14 46 L 50 46" stroke="#f6c544" stroke-width="0.8" fill="none" opacity="0.7"/>
</svg>
